<svg width="2005" height="423" viewBox="0 0 2005 423" fill="none" xmlns="http://www.w3.org/2000/svg">
<path d="M633.33 181.014L662.742 53.106H700.818L663.426 212.706H604.602L579.75 107.37H576.786L552.162 212.706H492.198L455.034 53.106H493.11L522.522 181.014H526.398L556.722 53.106H600.042L630.366 181.014H633.33ZM826.041 156.846H723.897C726.405 173.946 736.665 182.382 759.009 182.382C779.757 182.382 790.017 176.682 793.209 168.246H826.725C823.305 195.834 800.961 212.706 759.009 212.706C715.233 212.706 690.381 190.818 690.381 148.182C690.381 106.458 715.917 83.658 759.009 83.658C777.021 83.658 791.613 88.2181 802.329 95.7421V95.5141C826.953 112.386 829.233 139.29 827.409 156.846H826.041ZM759.009 113.982C739.857 113.982 729.369 121.05 725.265 134.046H792.753C790.017 124.47 783.633 113.982 759.009 113.982ZM923.677 84.798C977.713 84.798 983.413 130.17 983.413 148.866C983.413 165.966 977.485 212.706 923.677 212.706C899.737 212.706 885.145 206.094 876.481 194.922H874.885V212.706H840.229V48.09H874.885V103.722H876.709C885.373 92.3221 899.965 84.798 923.677 84.798ZM913.645 183.066C946.705 183.066 950.353 157.986 950.353 148.866C950.353 138.834 946.705 114.666 913.645 114.666C883.549 114.666 877.393 131.538 877.393 148.866C877.393 168.246 883.549 183.066 913.645 183.066ZM1028.07 212.706H993.639V85.71H1028.07V212.706ZM1028.07 76.5901H993.639V45.582H1028.07V76.5901ZM1139.16 164.826H1173.36C1170.63 195.606 1143.5 212.706 1106.79 212.706C1069.17 212.706 1038.62 191.046 1038.62 148.638C1038.62 107.37 1069.17 84.57 1106.79 84.57C1143.5 84.57 1170.4 102.354 1173.36 132.678H1139.39C1136.43 123.102 1127.99 115.806 1106.79 115.806C1084.22 115.806 1072.36 126.978 1072.36 148.638C1072.36 171.438 1084.22 181.698 1106.79 181.698C1128.68 181.698 1136.66 173.718 1139.16 164.826ZM1286.92 103.722H1288.51V84.798H1323.17V212.706H1288.51V194.922H1287.37C1278.71 206.094 1264.12 212.706 1239.95 212.706C1186.37 212.706 1180.44 165.966 1180.44 148.866C1180.44 130.17 1186.14 84.798 1240.18 84.798C1263.89 84.798 1278.25 92.3221 1286.92 103.722ZM1250.21 183.066C1280.08 183.066 1286.23 168.246 1286.23 148.866C1286.23 131.538 1280.08 114.666 1250.21 114.666C1216.92 114.666 1213.5 138.834 1213.5 148.866C1213.5 157.986 1217.15 183.066 1250.21 183.066ZM1533.35 152.058H1569.38C1566.19 187.626 1535.18 212.706 1490.72 212.706C1444.89 212.706 1410.01 185.118 1410.01 131.766C1410.01 79.326 1444.89 50.598 1490.72 50.598C1535.18 50.598 1567.1 77.274 1569.38 111.474H1533.35C1528.34 94.146 1516.48 85.938 1490.72 85.938C1463.36 85.938 1444.43 100.074 1444.43 131.766C1444.43 163.458 1463.36 177.366 1490.72 177.366C1517.39 177.366 1529.02 167.79 1533.35 152.058ZM1720.98 106.458C1720.98 134.046 1708.67 144.078 1694.3 151.602L1724.85 212.706H1687.23L1661.24 159.582C1657.82 159.582 1654.86 159.582 1652.81 159.582C1646.88 159.582 1623.17 159.582 1616.1 159.582V212.706H1581.44V53.106H1616.1V53.334C1624.53 53.334 1649.84 53.106 1659.19 53.106C1678.34 53.106 1720.98 53.106 1720.98 106.458ZM1656.45 128.574C1666.49 128.574 1688.83 128.802 1688.83 106.458C1688.83 84.342 1667.85 84.342 1657.14 84.342C1650.75 84.342 1625.22 84.342 1616.1 84.342V128.574C1623.62 128.574 1653.49 128.574 1656.45 128.574ZM1872.56 53.106H1922.26V212.706H1887.61V93.918H1884.19L1853.86 212.706H1803.93L1773.61 93.918H1770.19V212.706H1735.53V53.106H1786.6V53.334H1795.04L1826.73 181.014H1829.92L1861.84 53.334H1872.56V53.106Z" fill="#CCBFFF"/>
<path d="M487.764 330.302L533.204 267.966H557.524L511.956 330.302H487.764ZM487.764 344.382V330.302L501.076 327.102H556.372V344.382H487.764ZM490.324 271.294V254.014H557.524V267.966L543.956 271.294H490.324ZM644.3 345.662C638.582 345.662 633.462 344.254 628.94 341.438C624.502 338.622 620.961 334.782 618.316 329.918C615.756 325.054 614.476 319.507 614.476 313.278C614.476 307.049 615.756 301.502 618.316 296.638C620.961 291.774 624.502 287.934 628.94 285.118C633.462 282.302 638.582 280.894 644.3 280.894C648.481 280.894 652.236 281.704 655.564 283.326C658.977 284.947 661.75 287.208 663.884 290.11C666.017 292.926 667.212 296.168 667.468 299.838V326.718C667.212 330.387 666.017 333.673 663.884 336.574C661.836 339.39 659.105 341.609 655.692 343.23C652.278 344.851 648.481 345.662 644.3 345.662ZM648.268 327.998C652.449 327.998 655.82 326.633 658.38 323.902C660.94 321.086 662.22 317.545 662.22 313.278C662.22 310.377 661.622 307.817 660.428 305.598C659.318 303.379 657.697 301.672 655.564 300.478C653.516 299.198 651.126 298.558 648.396 298.558C645.665 298.558 643.233 299.198 641.1 300.478C639.052 301.672 637.388 303.379 636.108 305.598C634.913 307.817 634.316 310.377 634.316 313.278C634.316 316.094 634.913 318.611 636.108 320.83C637.302 323.049 638.966 324.798 641.1 326.078C643.233 327.358 645.622 327.998 648.268 327.998ZM661.452 344.382V327.614L664.396 312.51L661.452 297.406V282.174H680.652V344.382H661.452ZM840.928 311.486V295.87H860.384C862.858 295.87 865.12 295.358 867.168 294.334C869.216 293.31 870.837 291.816 872.032 289.854C873.227 287.891 873.824 285.502 873.824 282.686C873.824 279.955 873.227 277.609 872.032 275.646C870.837 273.683 869.216 272.19 867.168 271.166C865.12 270.142 862.858 269.63 860.384 269.63H840.928V254.014H863.328C869.045 254.014 874.208 255.166 878.816 257.47C883.424 259.774 887.051 263.102 889.696 267.454C892.426 271.721 893.792 276.798 893.792 282.686C893.792 288.574 892.426 293.694 889.696 298.046C887.051 302.313 883.424 305.641 878.816 308.03C874.208 310.334 869.045 311.486 863.328 311.486H840.928ZM825.568 344.382V254.014H845.664V344.382H825.568ZM983.958 345.79C977.558 345.79 971.755 344.382 966.55 341.566C961.43 338.665 957.376 334.739 954.39 329.79C951.403 324.841 949.91 319.294 949.91 313.15C949.91 307.006 951.403 301.502 954.39 296.638C957.376 291.774 961.43 287.934 966.55 285.118C971.67 282.217 977.472 280.766 983.958 280.766C990.443 280.766 996.246 282.174 1001.37 284.99C1006.49 287.806 1010.54 291.688 1013.53 296.638C1016.51 301.502 1018.01 307.006 1018.01 313.15C1018.01 319.294 1016.51 324.841 1013.53 329.79C1010.54 334.739 1006.49 338.665 1001.37 341.566C996.246 344.382 990.443 345.79 983.958 345.79ZM983.958 327.998C986.774 327.998 989.248 327.401 991.382 326.206C993.515 324.926 995.136 323.177 996.246 320.958C997.44 318.654 998.038 316.051 998.038 313.15C998.038 310.248 997.44 307.731 996.246 305.598C995.051 303.379 993.387 301.672 991.254 300.478C989.206 299.198 986.774 298.558 983.958 298.558C981.227 298.558 978.795 299.198 976.662 300.478C974.528 301.672 972.864 303.379 971.67 305.598C970.475 307.817 969.878 310.377 969.878 313.278C969.878 316.094 970.475 318.654 971.67 320.958C972.864 323.177 974.528 324.926 976.662 326.206C978.795 327.401 981.227 327.998 983.958 327.998ZM1080.24 344.382V251.454H1099.82V344.382H1080.24ZM1166.09 344.382V282.174H1185.67V344.382H1166.09ZM1175.95 273.598C1172.87 273.598 1170.31 272.574 1168.27 270.526C1166.3 268.392 1165.32 265.832 1165.32 262.846C1165.32 259.774 1166.3 257.214 1168.27 255.166C1170.31 253.118 1172.87 252.094 1175.95 252.094C1179.02 252.094 1181.54 253.118 1183.5 255.166C1185.46 257.214 1186.44 259.774 1186.44 262.846C1186.44 265.832 1185.46 268.392 1183.5 270.526C1181.54 272.574 1179.02 273.598 1175.95 273.598ZM1291.75 344.382L1269.99 312.126L1291.63 282.174H1313.51L1287.4 315.838L1288.04 307.774L1314.79 344.382H1291.75ZM1251.95 344.382V251.454H1271.53V344.382H1251.95ZM1374.3 344.382V251.454H1393.88V344.382H1374.3ZM1460.16 344.382V282.174H1479.74V344.382H1460.16ZM1470.01 273.598C1466.94 273.598 1464.38 272.574 1462.33 270.526C1460.37 268.392 1459.39 265.832 1459.39 262.846C1459.39 259.774 1460.37 257.214 1462.33 255.166C1464.38 253.118 1466.94 252.094 1470.01 252.094C1473.08 252.094 1475.6 253.118 1477.56 255.166C1479.53 257.214 1480.51 259.774 1480.51 262.846C1480.51 265.832 1479.53 268.392 1477.56 270.526C1475.6 272.574 1473.08 273.598 1470.01 273.598ZM1587.1 344.382V308.926C1587.1 305.683 1586.07 303.08 1584.03 301.118C1582.06 299.07 1579.55 298.046 1576.47 298.046C1574.34 298.046 1572.46 298.515 1570.84 299.454C1569.22 300.307 1567.94 301.587 1567 303.294C1566.06 304.915 1565.59 306.793 1565.59 308.926L1558.04 305.214C1558.04 300.35 1559.11 296.083 1561.24 292.414C1563.38 288.744 1566.32 285.928 1570.07 283.966C1573.91 281.918 1578.22 280.894 1583 280.894C1587.61 280.894 1591.66 282.003 1595.16 284.222C1598.75 286.355 1601.56 289.214 1603.61 292.798C1605.66 296.382 1606.68 300.307 1606.68 304.574V344.382H1587.1ZM1546.01 344.382V282.174H1565.59V344.382H1546.01ZM1671.74 344.382V282.174H1691.32V344.382H1671.74ZM1681.6 273.598C1678.52 273.598 1675.96 272.574 1673.92 270.526C1671.95 268.392 1670.97 265.832 1670.97 262.846C1670.97 259.774 1671.95 257.214 1673.92 255.166C1675.96 253.118 1678.52 252.094 1681.6 252.094C1684.67 252.094 1687.19 253.118 1689.15 255.166C1691.11 257.214 1692.09 259.774 1692.09 262.846C1692.09 265.832 1691.11 268.392 1689.15 270.526C1687.19 272.574 1684.67 273.598 1681.6 273.598ZM1797.4 344.382L1775.64 312.126L1797.28 282.174H1819.16L1793.05 315.838L1793.69 307.774L1820.44 344.382H1797.4ZM1757.6 344.382V251.454H1777.18V344.382H1757.6ZM1907.92 345.79C1901.18 345.79 1895.16 344.425 1889.87 341.694C1884.67 338.878 1880.57 334.995 1877.58 330.046C1874.6 325.097 1873.1 319.507 1873.1 313.278C1873.1 307.049 1874.56 301.502 1877.46 296.638C1880.44 291.688 1884.45 287.806 1889.49 284.99C1894.52 282.174 1900.2 280.766 1906.51 280.766C1912.66 280.766 1918.08 282.089 1922.77 284.734C1927.46 287.379 1931.13 291.048 1933.78 295.742C1936.51 300.435 1937.87 305.811 1937.87 311.87C1937.87 312.979 1937.79 314.174 1937.62 315.454C1937.53 316.649 1937.32 318.057 1936.98 319.678L1883.34 319.806V306.366L1928.66 306.238L1920.21 311.87C1920.12 308.286 1919.57 305.342 1918.54 303.038C1917.52 300.649 1915.98 298.857 1913.94 297.662C1911.97 296.382 1909.54 295.742 1906.64 295.742C1903.57 295.742 1900.88 296.467 1898.58 297.918C1896.36 299.283 1894.61 301.246 1893.33 303.806C1892.13 306.366 1891.54 309.481 1891.54 313.15C1891.54 316.819 1892.18 319.977 1893.46 322.622C1894.82 325.182 1896.7 327.187 1899.09 328.638C1901.56 330.003 1904.46 330.686 1907.79 330.686C1910.86 330.686 1913.64 330.174 1916.11 329.15C1918.59 328.041 1920.76 326.419 1922.64 324.286L1933.39 335.038C1930.32 338.622 1926.61 341.31 1922.26 343.102C1917.9 344.894 1913.13 345.79 1907.92 345.79Z" fill="url(#paint0_linear_1879_12)"/>
<path d="M314.333 105.565L419.333 211.129V422.258L314.333 316.694L209.346 211.129L104.346 105.565L209.346 0L314.333 105.565Z" fill="#CCBFFF"/>
<path d="M209.666 210.966L104.833 105.32L0 210.966V422.258L104.833 316.612L209.666 210.966Z" fill="#8277FF"/>
<path d="M314.012 105.321L209.185 210.641L104.346 105.321L209.185 0L314.012 105.321Z" fill="#CCBFFF"/>
<defs>
<linearGradient id="paint0_linear_1879_12" x1="419.338" y1="297.43" x2="2005" y2="297.43" gradientUnits="userSpaceOnUse">
<stop stop-color="#CCBFFF"/>
<stop offset="1" stop-color="#4D4799"/>
</linearGradient>
</defs>
</svg>
